<svg xmlns="http://www.w3.org/2000/svg" version="1.1" xmlns:xlink="http://www.w3.org/1999/xlink" xmlns:svgjs="http://svgjs.dev/svgjs" width="1000" height="1000" viewBox="0 0 1000 1000"><g transform="matrix(1,0,0,1,-0.14221556886212738,-0.14221556886229791)"><svg viewBox="0 0 334 334" data-background-color="#ffffff" preserveAspectRatio="xMidYMid meet" height="1000" width="1000" xmlns="http://www.w3.org/2000/svg" xmlns:xlink="http://www.w3.org/1999/xlink"><g id="tight-bounds" transform="matrix(1,0,0,1,0.04749999999998522,0.04750000000001364)"><svg viewBox="0 0 333.90454557049503 333.90454557049503" height="333.90454557049503" width="333.90454557049503"><g><svg></svg></g><g><svg viewBox="0 0 333.90454557049503 333.90454557049503" height="333.90454557049503" width="333.90454557049503"><g><path d="M0 166.952c0-92.205 74.747-166.952 166.952-166.952 92.205 0 166.952 74.747 166.953 166.952 0 92.205-74.747 166.952-166.953 166.953-92.205 0-166.952-74.747-166.952-166.953zM166.952 316.63c82.665 0 149.677-67.013 149.678-149.678 0-82.665-67.013-149.677-149.678-149.677-82.665 0-149.677 67.013-149.677 149.677 0 82.665 67.013 149.677 149.677 149.678z" data-fill-palette-color="tertiary" fill="#ee3e38" stroke="transparent"></path><ellipse rx="160.27418187383762" ry="160.27418187383762" cx="166.95227278524752" cy="166.95227278524752" fill="#ee3e38" stroke="transparent" stroke-width="0" fill-opacity="1" data-fill-palette-color="tertiary"></ellipse></g><g transform="matrix(1,0,0,1,87.3435699375978,71.17305217166896)"><svg viewBox="0 0 159.21740569529942 191.55844122715712" height="191.55844122715712" width="159.21740569529942"><g><svg viewBox="0 0 159.21740569529942 191.55844122715712" height="191.55844122715712" width="159.21740569529942"><g><svg viewBox="0 0 159.21740569529942 191.55844122715712" height="191.55844122715712" width="159.21740569529942"><g><svg viewBox="0 0 159.21740569529942 191.55844122715712" height="191.55844122715712" width="159.21740569529942"><g id="textblocktransform"><svg viewBox="0 0 159.21740569529942 191.55844122715712" height="191.55844122715712" width="159.21740569529942" id="textblock"><g><svg viewBox="0 0 159.21740569529942 191.55844122715712" height="191.55844122715712" width="159.21740569529942"><g transform="matrix(1,0,0,1,0,0)"><svg width="159.21740569529942" viewBox="3.5999999046325684 -34.29999923706055 28.80000114440918 34.64999771118164" height="191.55844122715712" data-palette-color="#ffffff"><path d="M32.4-0.3Q30.75 0.35 28.1 0.35L28.1 0.35Q25.55 0.35 23.95-0.9 22.35-2.15 22.35-5.1L22.35-5.1Q22.35-9.4 21.23-11.8 20.1-14.2 17-14.2L17-14.2 11.2-14.2 11.2 0 3.6 0 3.6-34.3 18.95-34.3Q23.85-34.3 27.18-32.3 30.5-30.3 30.5-25.8L30.5-25.8Q30.5-24 29.7-22.25 28.9-20.5 27.48-19.25 26.05-18 24.35-17.7L24.35-17.7 24.35-17.45Q26.55-16.75 28.2-14.45 29.85-12.15 29.85-8.3L29.85-8.3Q29.85-2.8 32.4-2L32.4-2 32.4-0.3ZM18.7-20.25Q20.35-20.25 21.53-21.35 22.7-22.45 22.7-24L22.7-24 22.7-24.35Q22.7-26 21.58-27.08 20.45-28.15 18.7-28.15L18.7-28.15 11.2-28.15 11.2-20.25 18.7-20.25Z" opacity="1" transform="matrix(1,0,0,1,0,0)" fill="#ffffff" class="wordmark-text-0" data-fill-palette-color="quaternary" id="text-0"></path></svg></g></svg></g></svg></g></svg></g><g></g></svg></g></svg></g></svg></g></svg></g><defs></defs></svg><rect width="333.90454557049503" height="333.90454557049503" fill="none" stroke="none" visibility="hidden"></rect></g></svg></g></svg>